<svg xmlns="http://www.w3.org/2000/svg" viewBox="0 0 100 100" xml:space="preserve"><path d="M100 46V.8c0-.5-.4-.8-.8-.8H32c-.3 0-.4.3-.2.5a14 14 0 0 1 1.6 17.3c-.1.2 0 .4.2.4 1.6-.3 3.2-.4 5-.4 13.4 0 22 8.1 22 20.6l-.1 2.5.2.2h1.7c5.9.1 10.6 1.6 14 4.5l.5.5 1.6 1.7c1.9 2.4 2.9 5.4 2.9 8.6 0 3-.8 5.5-2.5 7.7-.1.2 0 .4.2.4 1.6-.3 3.4-.4 5.2-.4a24 24 0 0 1 13 3.2l2.7 2.2h.1L100 46zm-25.3-7.6-.8-3-2.3-8.5-7.2-2.5-4.1-1.4 2-1.3 8-5.2.1-3.5.2-8.4 4.2 3.3 5.1 4.1 3.8-1.2 7.6-2.3-2.8 7.4-1.4 3.7 4.2 6 2.6 3.7-6.5-.3-5.4-.2-5.4 7.2-1.9 2.4z" fill="#267cb9"/><path d="M78.5 93.4c0-.8 0-1.3 6.7-3.3C95.8 87 99 84.3 99 79.3c0-1.2-.2-2.5-.8-3.7-1.6-3.6-5.7-6.6-14-6.6-3.5 0-6.3.5-8.5 1.5H55.8c0-.8 0-1.3 6.7-3.3 4.5-1.4 7.7-2.6 9.8-4 2.8-1.9 3.9-4 3.9-6.8a9.5 9.5 0 0 0-5.9-8.6c-2.2-1-5.1-1.7-9-1.7-3.2 0-5.9.5-8.1 1.3 1.5-2.5 2.2-5.6 2.2-8.9 0-9.3-5.7-15.6-17-15.6a21 21 0 0 0-8.8 1.7H10.1c0-.8 0-1.3 6.7-3.3a56 56 0 0 0 6.3-2.2c5.6-2.4 7.4-4.8 7.4-8.7 0-3.6-2-7.5-7.4-9.3-2-.7-4.4-1-7.3-1C5.1 0 .4 5.2.4 11.4L.6 14h7.9a10 10 0 0 1-.2-1.9c0-3.7 2.7-5.6 7.6-5.6 3.9 0 5.9 1.8 5.9 3.9 0 2.8-1.7 3.6-9.6 6C1.2 20 0 23.1 0 31h23.1a17 17 0 0 0-1.4 8.8c.3 4.7 2.2 8.8 5.9 11.4 2.7 1.9 6.3 3 11 3 3.3 0 6-.5 8.3-1.5-.7 1.4-1 3-1 4.6l.2 2.6H54a10 10 0 0 1-.2-1.9c0-3.7 2.7-5.6 7.6-5.6 3.9 0 5.9 1.8 5.9 3.9 0 2.8-1.7 3.6-9.6 6-2.8.9-4.9 1.7-6.6 2.6-5 2.7-5.6 5.9-5.6 11.9h23.6a12.6 12.6 0 0 0-.3 5.9h7.9a10 10 0 0 1-.2-1.9c0-3.7 2.7-5.6 7.6-5.6 3.9 0 5.9 1.8 5.9 3.9 0 2.8-1.7 3.6-9.6 6l-3.8 1.3c-7.6 3-8.5 6.3-8.5 13.2H100V93H78.5zM38.6 47.7c-5.5 0-8-3.5-8-9.2 0-5.8 2.8-9.1 8-9.1 5.3 0 8.1 3.3 8.1 9.1 0 5.6-2.6 9.2-8.1 9.2z" fill="#09203f"/><path d="M.8 100h61.9c.3 0 .5-.2.5-.5 0-5.5.9-9.8 4.5-13.2.2-.2.1-.5-.2-.5H.8c-.5 0-.8.4-.8.8v12.5c0 .5.4.9.8.9zm15.1-60.1H.8c-.5 0-.8.4-.8.8v12.5c0 .4.4.8.8.8h21.8c.2 0 .3-.2.1-.4a19.8 19.8 0 0 1-6-12.9c.1-.4-.3-.8-.8-.8zm28.8 23H.8c-.5 0-.8.4-.8.8v12.5c0 .4.4.8.8.8H40c.2 0 .4-.2.4-.5 0-5.5.9-9.8 4.5-13.1.3-.1.2-.5-.2-.5z" fill="#d22528"/></svg>