<svg xmlns="http://www.w3.org/2000/svg" viewBox="0 0 183 88" style="enable-background:new 0 0 183 88" xml:space="preserve"><path d="M97.5 63.1H183V85H97.5zm0-62.2H183v21.9H97.5zm0 30.9H183v21.9H97.5z" style="fill:#d62227"/><path d="M67.4 0c-20.6 0-23 12.2-23 21.4 0 10 2.6 21.4 23 21.4 20.9 0 23.3-12.2 23.3-21.4C90.7 12.3 88.3 0 67.4 0zm5.9 22.3c0 3.5 0 6.3-1.4 7.8-.9.9-2.3 1.3-4.5 1.3-3.4 0-4.4-1.2-5-2.3-.7-1.6-.7-4.2-.7-7.1v-1c0-2.9 0-5.4.7-7.1.5-1.1 1.5-2.3 5-2.3 2.1 0 3.6.4 4.4 1.3 1.4 1.4 1.4 4.2 1.4 7.8v.8l.1.8zm-30.9 8.6H16.8c.2-1.1 4.6-2.5 7.8-3.4 7.3-2.2 17.2-5.3 17.9-13 .3-3.4-.6-6.4-2.7-8.7C36.3 1.9 30.1 0 21.4 0 7.1 0 .2 5.3.2 16.1v1h16.4v-1c0-4.7 1.5-5.2 4.6-5.2 1.9 0 3.2.4 3.9 1.2.4.5.5 1.3.3 2.3-.3 1.8-4.1 2.8-8.1 4C10 20.4.1 23.2 0 33.2v9.5h42.4V30.9zm0 44.5H16.8c.2-1.1 4.6-2.5 7.8-3.4 7.3-2.2 17.2-5.3 17.9-13 .3-3.4-.6-6.4-2.7-8.7-3.4-3.8-9.6-5.7-18.4-5.7C7.1 44.6.2 49.9.2 60.7v1h16.4v-1c0-4.7 1.5-5.2 4.6-5.2 1.9 0 3.2.4 3.9 1.2.4.5.5 1.3.3 2.3-.3 1.8-4.1 2.8-8.1 4C10 64.9.1 67.7 0 77.7v9.5h42.4V75.4zm46.3.7H63c.2-1.1 4.6-2.5 7.8-3.4 7.3-2.2 17.2-5.3 17.9-13 .3-3.4-.6-6.4-2.7-8.7-3.4-3.8-9.6-5.7-18.4-5.7-14.3 0-21.2 5.3-21.2 16.1v1h16.4v-1c0-4.7 1.5-5.2 4.6-5.2 1.9 0 3.2.4 3.9 1.2.4.5.5 1.3.3 2.3-.3 1.8-4.1 2.8-8.1 4-7.2 2-17.2 4.9-17.2 14.8V88h42.4V76.1z" style="fill:#257bbc"/></svg>