<svg xmlns="http://www.w3.org/2000/svg" viewBox="0 0 300 35" xml:space="preserve"><path d="M33.8 16.1V.9c0-.2-.1-.3-.3-.3H10.8l-.1.2c.9.9 1.3 2 1.3 3.3 0 1-.3 1.8-.8 2.5l.1.1 1.7-.1c4.5 0 7.4 2.7 7.4 7v.8l.1.1h.6c2 0 3.6.6 4.7 1.5l.2.2.5.6c.6.8 1 1.8 1 2.9 0 1-.3 1.9-.8 2.6l.1.1 1.8-.1c1.8 0 3.3.4 4.4 1.1l.9.8-.1-8.1zm-8.5-2.5-.3-1-.8-2.9-2.4-.8-1.4-.5.7-.4 2.7-1.8V5l.1-2.8 1.4 1.1L27 4.6l1.3-.4 2.6-.8-1 2.6-.5 1.3 1.4 2 .9 1.3-2.2-.1-1.8-.1-1.8 2.4-.6.8z" fill="#267cb9"/><path d="M26.5 32.2c0-.3 0-.4 2.3-1.1 3.6-1.1 4.6-2 4.6-3.7l-.3-1.3c-.5-1.2-1.9-2.2-4.7-2.2a8 8 0 0 0-2.9.5h-6.7c0-.3 0-.4 2.3-1.1 1.5-.5 2.6-.9 3.3-1.4 1-.6 1.3-1.3 1.3-2.3 0-.9-.4-1.8-1.3-2.5l-.7-.4c-.7-.4-1.7-.6-3-.6-1.1 0-2 .2-2.7.4a6 6 0 0 0 .7-3c0-3.2-1.9-5.3-5.7-5.3-1.2 0-2.2.2-3 .6H3.5c0-.3 0-.4 2.3-1.1L7.9 7c1.9-.8 2.5-1.6 2.5-2.9 0-1.2-.7-2.5-2.5-3.1C7.2.7 6.4.6 5.4.6 1.7.6.1 2.4.1 4.4l.1.9h2.7l-.1-.6c0-1.2.9-1.9 2.6-1.9 1.3 0 2 .6 2 1.3 0 .9-.6 1.2-3.3 2C.4 7.4 0 8.4 0 11.1h7.8c-.3.7-.5 1.6-.5 2.5v.5c.1 1.6.7 3 2 3.9a7.8 7.8 0 0 0 6.5.5c-.2.5-.3 1-.3 1.6l.1.9h2.7l-.1-.6c0-1.2.9-1.9 2.6-1.9 1.3 0 2 .6 2 1.3 0 .9-.6 1.2-3.3 2l-2.2.9c-1.7.9-1.9 2-1.9 4h8l-.2 1.1.1.9H26l-.1-.6c0-1.2.9-1.9 2.6-1.9 1.3 0 2 .6 2 1.3 0 .9-.6 1.2-3.3 2l-1.3.4c-2.6 1-2.9 2.1-2.9 4.5h10.8v-2.2h-7.3zM13 16.7c-1.9 0-2.7-1.2-2.7-3.1 0-2 .9-3.1 2.7-3.1 1.8 0 2.7 1.1 2.7 3.1.1 1.9-.8 3.1-2.7 3.1z" fill="#09203f"/><path d="M.3 34.4h20.9l.2-.2c0-1.9.3-3.3 1.5-4.4.1-.1 0-.2-.1-.2H.3c-.2 0-.3.1-.3.3v4.2c0 .2.1.3.3.3zm5.1-20.3H.3c-.2 0-.3.1-.3.3v4.2c0 .2.1.3.3.3h7.4c.1 0 .1-.1 0-.1a6.7 6.7 0 0 1-2-4.4c0-.2-.2-.3-.3-.3zm9.7 7.8H.3c-.2 0-.3.1-.3.2v4.2c0 .2.1.3.3.3h13.3l.2-.2c0-1.9.3-3.3 1.5-4.4l-.2-.1zm32-1.6h15.6v-5.8H47.1V7.9h20.3V.6H38v33.8h29.9v-7.3H47.1zM79.9.6h-9.1v33.8h27.5v-7.8H79.9zm30.2 19.7h15.6v-5.8h-15.6V7.9h20.4V.6h-29.4v33.8h29.8v-7.3h-20.8zm51.4.2v.3c0 3.7-3.3 6.9-9.7 6.9-7.5 0-10.4-4.8-10.4-10.2 0-5.8 3.6-10.3 10.4-10.3 6.7 0 9.6 4 9.6 7.1v.2h8.1v-.8C169.5 8.1 165 0 151.3 0c-12.9 0-19.5 7.5-19.5 17.6 0 8.7 4.9 17.5 19.6 17.5 13.3 0 18.2-7.2 18.2-13.8v-.7h-8.1zm8.8-12.6h12.2v26.5h9.1V7.9h12.2V.6h-33.5zm36-7.3h9.1v33.8h-9.1zm32.5-.6c-14 0-20.4 8-20.4 17.4 0 10.1 6.3 17.7 20.4 17.7 14.5 0 20.4-8.1 20.4-17.7C259.2 8 252.9 0 238.8 0zm0 27.7c-7.4 0-10.9-4.3-10.9-10.3 0-5.5 3.5-10.1 10.9-10.1s10.9 4.6 10.9 10.1c0 5.8-3.3 10.3-10.9 10.3zM291.2.6v20.3L274.6.6h-12.7v33.8h8.8V9.5h.1L291 34.4h9V.6z" fill="#d22528"/></svg>